P2
8 8
15
0  0  0  0  0  0  0  0
0  1  2  3  4  5  6  0
0  3  0  0  0  0  0  0
0 12 11 10  9  8  7  0
0  0  0  0  0  0  0  0
0 13 14 15  3  0 12  0
0  0  0  0  0  0  0  0
0  0  0  0  0  0  0  0