P2
8 8
15
0  0  0  0  0  0  0  0  
0  0  13 0  12 3  1  0  
0  0  14 0  11 0  2  0  
0  0  15 0  10 0  3  0  
0  0  3  0  9  0  4  0  
0  0  0  0  8  0  5  0  
0  0  12 0  7  0  6  0  
0  0  0  0  0  0  0  0  
