P3 4 2 255
0 0 0  0 0 0  
255 0 0 255 0 0 
0 255 0 0 255 0 
0 0 255 0 0 255 
