P3
2 2 255
0 0 0 
76 76 76 
149 149 149 
29 29 29 
